<svg width="21" height="20" viewBox="0 0 21 20" fill="none" xmlns="http://www.w3.org/2000/svg">
<path d="M20.2452 15.7877L19.0651 12.3533C19.634 11.1905 19.9346 9.89724 19.9366 8.59603C19.9401 6.3335 19.0647 4.19424 17.4717 2.57234C15.8784 0.950122 13.7552 0.0369451 11.4932 0.00111013C9.14764 -0.0359551 6.94294 0.856228 5.28544 2.51368C3.6872 4.11189 2.80073 6.21885 2.77267 8.47039C1.19744 9.65639 0.267675 11.5055 0.270731 13.4805C0.272199 14.4048 0.480226 15.3235 0.874411 16.1543L0.0615558 18.5198C-0.0781727 18.9265 0.0238937 19.368 0.327955 19.672C0.541933 19.8861 0.824051 20 1.11418 20C1.23625 20 1.35975 19.9798 1.48019 19.9384L3.84574 19.1256C4.67653 19.5198 5.59526 19.7278 6.51951 19.7293C6.52284 19.7293 6.52601 19.7293 6.52935 19.7293C8.5338 19.7292 10.397 18.7755 11.5787 17.1616C12.8084 17.1292 14.0251 16.8316 15.125 16.2935L18.5594 17.4736C18.7025 17.5228 18.8493 17.5468 18.9943 17.5468C19.3391 17.5468 19.6744 17.4114 19.9287 17.157C20.29 16.7956 20.4113 16.271 20.2452 15.7877ZM6.52927 18.5199C6.52669 18.5199 6.52396 18.5199 6.52138 18.5199C5.70332 18.5186 4.89094 18.3169 4.17222 17.9367C4.02444 17.8586 3.85093 17.845 3.69291 17.8993L1.26729 18.7328L2.10077 16.3072C2.15506 16.1491 2.14157 15.9756 2.06339 15.8279C1.68314 15.1091 1.48146 14.2968 1.48019 13.4787C1.47817 12.1628 1.99006 10.9156 2.88522 9.98164C3.17761 11.7641 4.02713 13.4066 5.34394 14.7C6.65102 15.9839 8.29404 16.8013 10.0668 17.0685C9.13074 17.9911 7.86894 18.5199 6.52927 18.5199Z" fill="white"/>
<path d="M20.2452 15.7877L19.0651 12.3533C19.634 11.1905 19.9346 9.89724 19.9366 8.59603C19.9401 6.3335 19.0647 4.19424 17.4717 2.57234C15.8784 0.950122 13.7552 0.0369451 11.4932 0.00111013C9.14764 -0.0359551 6.94294 0.856228 5.28544 2.51368C3.6872 4.11189 2.80073 6.21885 2.77267 8.47039C1.19744 9.65639 0.267675 11.5055 0.270731 13.4805C0.272199 14.4048 0.480226 15.3235 0.874411 16.1543L0.0615558 18.5198C-0.0781727 18.9265 0.0238937 19.368 0.327955 19.672C0.541933 19.8861 0.824051 20 1.11418 20C1.23625 20 1.35975 19.9798 1.48019 19.9384L3.84574 19.1256C4.67653 19.5198 5.59526 19.7278 6.51951 19.7293C6.52284 19.7293 6.52601 19.7293 6.52935 19.7293C8.5338 19.7292 10.397 18.7755 11.5787 17.1616C12.8084 17.1292 14.0251 16.8316 15.125 16.2935L18.5594 17.4736C18.7025 17.5228 18.8493 17.5468 18.9943 17.5468C19.3391 17.5468 19.6744 17.4114 19.9287 17.157C20.29 16.7956 20.4113 16.271 20.2452 15.7877ZM6.52927 18.5199C6.52669 18.5199 6.52396 18.5199 6.52138 18.5199C5.70332 18.5186 4.89094 18.3169 4.17222 17.9367C4.02444 17.8586 3.85093 17.845 3.69291 17.8993L1.26729 18.7328L2.10077 16.3072C2.15506 16.1491 2.14157 15.9756 2.06339 15.8279C1.68314 15.1091 1.48146 14.2968 1.48019 13.4787C1.47817 12.1628 1.99006 10.9156 2.88522 9.98164C3.17761 11.7641 4.02713 13.4066 5.34394 14.7C6.65102 15.9839 8.29404 16.8013 10.0668 17.0685C9.13074 17.9911 7.86894 18.5199 6.52927 18.5199Z" fill="url(#paint0_linear)"/>
<path d="M20.2452 15.7877L19.0651 12.3533C19.634 11.1905 19.9346 9.89724 19.9366 8.59603C19.9401 6.3335 19.0647 4.19424 17.4717 2.57234C15.8784 0.950122 13.7552 0.0369451 11.4932 0.00111013C9.14764 -0.0359551 6.94294 0.856228 5.28544 2.51368C3.6872 4.11189 2.80073 6.21885 2.77267 8.47039C1.19744 9.65639 0.267675 11.5055 0.270731 13.4805C0.272199 14.4048 0.480226 15.3235 0.874411 16.1543L0.0615558 18.5198C-0.0781727 18.9265 0.0238937 19.368 0.327955 19.672C0.541933 19.8861 0.824051 20 1.11418 20C1.23625 20 1.35975 19.9798 1.48019 19.9384L3.84574 19.1256C4.67653 19.5198 5.59526 19.7278 6.51951 19.7293C6.52284 19.7293 6.52601 19.7293 6.52935 19.7293C8.5338 19.7292 10.397 18.7755 11.5787 17.1616C12.8084 17.1292 14.0251 16.8316 15.125 16.2935L18.5594 17.4736C18.7025 17.5228 18.8493 17.5468 18.9943 17.5468C19.3391 17.5468 19.6744 17.4114 19.9287 17.157C20.29 16.7956 20.4113 16.271 20.2452 15.7877ZM6.52927 18.5199C6.52669 18.5199 6.52396 18.5199 6.52138 18.5199C5.70332 18.5186 4.89094 18.3169 4.17222 17.9367C4.02444 17.8586 3.85093 17.845 3.69291 17.8993L1.26729 18.7328L2.10077 16.3072C2.15506 16.1491 2.14157 15.9756 2.06339 15.8279C1.68314 15.1091 1.48146 14.2968 1.48019 13.4787C1.47817 12.1628 1.99006 10.9156 2.88522 9.98164C3.17761 11.7641 4.02713 13.4066 5.34394 14.7C6.65102 15.9839 8.29404 16.8013 10.0668 17.0685C9.13074 17.9911 7.86894 18.5199 6.52927 18.5199Z" fill="#59648A"/>
<path d="M14.9567 7.86401H7.75156C7.41758 7.86401 7.14685 8.13478 7.14685 8.46872C7.14685 8.80267 7.41762 9.07343 7.75156 9.07343H14.9567C15.2906 9.07343 15.5614 8.80267 15.5614 8.46872C15.5614 8.13478 15.2906 7.86401 14.9567 7.86401Z" fill="white"/>
<path d="M14.9567 7.86401H7.75156C7.41758 7.86401 7.14685 8.13478 7.14685 8.46872C7.14685 8.80267 7.41762 9.07343 7.75156 9.07343H14.9567C15.2906 9.07343 15.5614 8.80267 15.5614 8.46872C15.5614 8.13478 15.2906 7.86401 14.9567 7.86401Z" fill="url(#paint1_linear)"/>
<path d="M14.9567 7.86401H7.75156C7.41758 7.86401 7.14685 8.13478 7.14685 8.46872C7.14685 8.80267 7.41762 9.07343 7.75156 9.07343H14.9567C15.2906 9.07343 15.5614 8.80267 15.5614 8.46872C15.5614 8.13478 15.2906 7.86401 14.9567 7.86401Z" fill="#020610"/>
<path d="M14.9567 5.3772H7.75156C7.41758 5.3772 7.14685 5.64796 7.14685 5.98191C7.14685 6.31589 7.41762 6.58662 7.75156 6.58662H14.9567C15.2906 6.58662 15.5614 6.31585 15.5614 5.98191C15.5614 5.64796 15.2906 5.3772 14.9567 5.3772Z" fill="white"/>
<path d="M14.9567 5.3772H7.75156C7.41758 5.3772 7.14685 5.64796 7.14685 5.98191C7.14685 6.31589 7.41762 6.58662 7.75156 6.58662H14.9567C15.2906 6.58662 15.5614 6.31585 15.5614 5.98191C15.5614 5.64796 15.2906 5.3772 14.9567 5.3772Z" fill="url(#paint2_linear)"/>
<path d="M14.9567 5.3772H7.75156C7.41758 5.3772 7.14685 5.64796 7.14685 5.98191C7.14685 6.31589 7.41762 6.58662 7.75156 6.58662H14.9567C15.2906 6.58662 15.5614 6.31585 15.5614 5.98191C15.5614 5.64796 15.2906 5.3772 14.9567 5.3772Z" fill="#020610"/>
<path d="M12.1832 10.3516H7.75156C7.41758 10.3516 7.14685 10.6223 7.14685 10.9563C7.14685 11.2903 7.41762 11.561 7.75156 11.561H12.1832C12.5172 11.561 12.7879 11.2902 12.7879 10.9563C12.7879 10.6223 12.5172 10.3516 12.1832 10.3516Z" fill="white"/>
<path d="M12.1832 10.3516H7.75156C7.41758 10.3516 7.14685 10.6223 7.14685 10.9563C7.14685 11.2903 7.41762 11.561 7.75156 11.561H12.1832C12.5172 11.561 12.7879 11.2902 12.7879 10.9563C12.7879 10.6223 12.5172 10.3516 12.1832 10.3516Z" fill="url(#paint3_linear)"/>
<path d="M12.1832 10.3516H7.75156C7.41758 10.3516 7.14685 10.6223 7.14685 10.9563C7.14685 11.2903 7.41762 11.561 7.75156 11.561H12.1832C12.5172 11.561 12.7879 11.2902 12.7879 10.9563C12.7879 10.6223 12.5172 10.3516 12.1832 10.3516Z" fill="#020610"/>
<defs>
<linearGradient id="paint0_linear" x1="-19.8408" y1="3.70993e-07" x2="-13.1667" y2="17.4469" gradientUnits="userSpaceOnUse">
<stop stop-color="#CD1426"/>
<stop offset="1" stop-color="#FF498A"/>
</linearGradient>
<linearGradient id="paint1_linear" x1="11.3541" y1="7.86401" x2="11.4215" y2="9.06967" gradientUnits="userSpaceOnUse">
<stop stop-color="#CD1426"/>
<stop offset="1" stop-color="#FF498A"/>
</linearGradient>
<linearGradient id="paint2_linear" x1="11.3541" y1="5.3772" x2="11.4215" y2="6.58286" gradientUnits="userSpaceOnUse">
<stop stop-color="#CD1426"/>
<stop offset="1" stop-color="#FF498A"/>
</linearGradient>
<linearGradient id="paint3_linear" x1="9.96738" y1="10.3516" x2="10.0675" y2="11.5526" gradientUnits="userSpaceOnUse">
<stop stop-color="#CD1426"/>
<stop offset="1" stop-color="#FF498A"/>
</linearGradient>
</defs>
</svg>
