

<svg width="20" height="20" viewBox="0 0 20 20" fill="none" xmlns="http://www.w3.org/2000/svg">
<path d="M19.4629 8.69904L19.4614 8.69751L11.3021 0.539398C10.9543 0.191498 10.492 0 10.0001 0C9.50828 0 9.04589 0.191498 8.69795 0.539398L0.542982 8.69339C0.540236 8.69614 0.537337 8.69904 0.534743 8.70178C-0.179441 9.42001 -0.17822 10.5853 0.538252 11.3017C0.865586 11.6292 1.29776 11.8187 1.75999 11.8387C1.77892 11.8405 1.79784 11.8414 1.81692 11.8414H2.14196V17.8452C2.14196 19.0334 3.10885 20 4.29718 20H7.48933C7.813 20 8.07533 19.7375 8.07533 19.4141V14.707C8.07533 14.1649 8.51651 13.7239 9.0587 13.7239H10.9415C11.4837 13.7239 11.9247 14.1649 11.9247 14.707V19.4141C11.9247 19.7375 12.1871 20 12.5107 20H15.7029C16.8914 20 17.8581 19.0334 17.8581 17.8452V11.8414H18.1597C18.6514 11.8414 19.1137 11.6499 19.4618 11.3019C20.1791 10.5844 20.1794 9.41696 19.4629 8.69904Z" fill="#59648A"/>
</svg>
