<svg width="18" height="23" viewBox="0 0 18 23" fill="none" xmlns="http://www.w3.org/2000/svg">
<path d="M17.2009 13.4662C16.9374 10.036 15.3403 7.88644 13.9314 5.98957C12.6268 4.23348 11.5 2.71701 11.5 0.479987C11.5 0.3003 11.3994 0.136066 11.2398 0.0537237C11.0798 -0.0291122 10.8874 -0.0155458 10.7419 0.0902003C8.62594 1.60434 6.86042 4.1563 6.24369 6.59125C5.81554 8.28647 5.75889 10.1922 5.75094 11.4509C3.79684 11.0335 3.35418 8.11055 3.34951 8.0787C3.3275 7.92709 3.23487 7.79516 3.1001 7.7231C2.96395 7.65199 2.80389 7.64682 2.66584 7.71515C2.56338 7.76474 0.150668 8.99066 0.0102869 13.8854C0.000449052 14.0482 0 14.2116 0 14.3749C0 19.1302 3.86935 22.9993 8.625 22.9993C8.63156 22.9997 8.63857 23.0007 8.64418 22.9993C8.64607 22.9993 8.64791 22.9993 8.65025 22.9993C13.3942 22.9857 17.25 19.1218 17.25 14.3749C17.25 14.1357 17.2009 13.4662 17.2009 13.4662ZM8.625 22.041C7.03962 22.041 5.75 20.6672 5.75 18.9786C5.75 18.921 5.74955 18.863 5.75373 18.7919C5.77291 18.0798 5.90817 17.5936 6.0565 17.2703C6.33448 17.8673 6.8314 18.4162 7.63861 18.4162C7.90347 18.4162 8.11779 18.2018 8.11779 17.937C8.11779 17.2548 8.13185 16.4678 8.3017 15.7575C8.45286 15.1277 8.81408 14.4577 9.27174 13.9205C9.47528 14.6177 9.87212 15.182 10.2596 15.7327C10.8141 16.5206 11.3873 17.3353 11.4879 18.7245C11.494 18.8069 11.5001 18.8897 11.5001 18.9786C11.5 20.6672 10.2104 22.041 8.625 22.041Z" fill="#59648A"/>
</svg>
