<svg width="18" height="18" viewBox="0 0 18 18" fill="none" xmlns="http://www.w3.org/2000/svg">
<path d="M17.3571 4.50001H14.1429V0.642869C14.1429 0.287816 13.855 0 13.5 0H0.642869C0.287816 0 0 0.287816 0 0.642869V15.4286C0 16.8487 1.15127 18 2.57144 18H15.4286C16.8487 18 18 16.8487 18 15.4286V5.14284C18 4.78783 17.7122 4.50001 17.3571 4.50001ZM5.14284 3.21427H8.99998C9.35503 3.21427 9.64285 3.50209 9.64285 3.85714C9.64285 4.21219 9.35503 4.50001 8.99998 4.50001H5.14284C4.78779 4.50001 4.49997 4.21219 4.49997 3.85714C4.49997 3.50209 4.78783 3.21427 5.14284 3.21427ZM10.9286 15.4286H3.21427C2.85922 15.4286 2.5714 15.1407 2.5714 14.7857C2.5714 14.4306 2.85922 14.1428 3.21427 14.1428H10.9286C11.2836 14.1428 11.5714 14.4306 11.5714 14.7857C11.5714 15.1407 11.2836 15.4286 10.9286 15.4286ZM10.9286 12.8571H3.21427C2.85922 12.8571 2.5714 12.5693 2.5714 12.2143C2.5714 11.8592 2.85922 11.5714 3.21427 11.5714H10.9286C11.2836 11.5714 11.5714 11.8592 11.5714 12.2143C11.5714 12.5693 11.2836 12.8571 10.9286 12.8571ZM10.9286 10.2857H3.21427C2.85922 10.2857 2.5714 9.9979 2.5714 9.64285C2.5714 9.2878 2.85922 8.99998 3.21427 8.99998H10.9286C11.2836 8.99998 11.5714 9.2878 11.5714 9.64285C11.5714 9.9979 11.2836 10.2857 10.9286 10.2857ZM10.9286 7.71428H3.21427C2.85922 7.71428 2.5714 7.42646 2.5714 7.07141C2.5714 6.71636 2.85922 6.42854 3.21427 6.42854H10.9286C11.2836 6.42854 11.5714 6.71636 11.5714 7.07141C11.5714 7.42646 11.2836 7.71428 10.9286 7.71428ZM16.7143 15.4286C16.7143 16.1386 16.1386 16.7143 15.4286 16.7143C14.7185 16.7143 14.1429 16.1386 14.1429 15.4286V5.78571H16.7143V15.4286H16.7143Z" fill="#59648A"/>
</svg>
