<svg width="18" height="23" viewBox="0 0 18 23" fill="none" xmlns="http://www.w3.org/2000/svg">
<path fill-rule="evenodd" clip-rule="evenodd" d="M8.99974 2.1698C9.92389 2.1698 10.8112 2.33285 11.6347 2.63138V2.52995C11.6347 1.13493 10.4998 0 9.10482 0H8.89515C7.50013 0 6.3652 1.13493 6.3652 2.52995V2.63009C7.18823 2.33245 8.07532 2.1698 8.99974 2.1698ZM5.85995 20.662C6.39307 21.8672 7.59958 22.7108 9.00002 22.7108C10.4005 22.7108 11.6069 21.8672 12.1401 20.662H5.85995ZM0.684026 19.3289H17.316C17.6307 19.3289 17.9188 19.1166 17.9843 18.8088C18.0491 18.504 17.9102 18.2033 17.6284 18.0731C17.5615 18.0298 17.0582 17.6778 16.5543 16.6131C15.6289 14.6577 15.4346 11.9032 15.4346 9.93683C15.4346 9.9283 15.4345 9.91977 15.4342 9.91128C15.4205 6.37494 12.5393 3.50244 8.99977 3.50244C5.45184 3.50244 2.56534 6.38885 2.56534 9.93683C2.56534 11.9032 2.37109 14.6577 1.44565 16.6131C0.941766 17.6778 0.43846 18.0298 0.371593 18.0731C0.0898161 18.2033 -0.0490728 18.5041 0.0157065 18.8088C0.0811523 19.1167 0.369371 19.3289 0.684026 19.3289Z" fill="#59648A"/>
</svg>
