<svg width="12" height="10" viewBox="0 0 12 10" fill="none" xmlns="http://www.w3.org/2000/svg">
<path d="M7.05162 3.36483V2.17189H9.95067V0.354248H2.05648V2.17189H4.95587V3.36387C2.5995 3.46571 0.827759 3.90484 0.827759 4.4309C0.827759 4.95697 2.60036 5.3961 4.95587 5.49858V9.31975H7.0523V5.49826C9.4044 5.3961 11.1726 4.95729 11.1726 4.43171C11.1726 3.90613 9.4044 3.46731 7.0523 3.36515L7.05162 3.36483ZM7.0523 5.17461V5.17365C6.99316 5.17717 6.68926 5.19434 6.01261 5.19434C5.47162 5.19434 5.09103 5.1799 4.95689 5.17333V5.17493C2.87511 5.08816 1.32119 4.74702 1.32119 4.33884C1.32119 3.93066 2.87528 3.59001 4.95689 3.50308V4.83507C5.09324 4.84389 5.48321 4.86555 6.02147 4.86555C6.66796 4.86555 6.99299 4.84021 7.05264 4.83507V3.50308C9.13033 3.59017 10.6807 3.93163 10.6807 4.33836C10.6807 4.7451 9.12965 5.08672 7.05264 5.17381" fill="white"/>
</svg>
