<svg width="14" height="14" viewBox="0 0 14 14" fill="none" xmlns="http://www.w3.org/2000/svg">
<g clip-path="url(#clip0)">
<path d="M13.1401 4.77499C12.5464 4.22676 11.725 3.38957 11.0561 2.79582L11.0165 2.76811C10.9506 2.71522 10.8764 2.67375 10.7968 2.6454C9.18378 2.34457 1.6768 0.94134 1.53035 0.959152C1.48931 0.9649 1.45008 0.979779 1.41555 1.00269L1.37795 1.03238C1.33165 1.07941 1.29648 1.13622 1.27503 1.19863L1.26514 1.22436V1.36488V1.38665C2.11024 3.73988 5.44712 11.4487 6.1042 13.2577C6.14378 13.3804 6.21899 13.6139 6.35951 13.6258H6.39118C6.46639 13.6258 6.78701 13.2023 6.78701 13.2023C6.78701 13.2023 12.5187 6.25144 13.0986 5.51124C13.1736 5.42006 13.2399 5.32198 13.2965 5.21832C13.3109 5.13721 13.3041 5.05375 13.2767 4.97605C13.2493 4.89836 13.2023 4.82909 13.1401 4.77499ZM8.25753 5.58447L10.7038 3.55582L12.1387 4.8779L8.25753 5.58447ZM7.30753 5.45186L3.09587 2.00019L9.91014 3.25696L7.30753 5.45186ZM7.68753 6.35634L11.9982 5.66165L7.07003 11.5992L7.68753 6.35634ZM2.52389 2.34457L6.95524 6.10499L6.31399 11.6031L2.52389 2.34457Z" fill="white"/>
</g>
<defs>
<clipPath id="clip0">
<rect width="12.6667" height="12.6667" fill="white" transform="translate(0.958374 0.958496)"/>
</clipPath>
</defs>
</svg>
